<svg width="16" height="16" viewBox="0 0 16 16" fill="none" xmlns="http://www.w3.org/2000/svg">
<g clip-path="url(#clip0_2132_1564)">
<path d="M13.3307 6.66535C13.3307 9.99339 9.63872 13.4594 8.39895 14.5299C8.28345 14.6167 8.14286 14.6637 7.99836 14.6637C7.85385 14.6637 7.71326 14.6167 7.59776 14.5299C6.35799 13.4594 2.66602 9.99339 2.66602 6.66535C2.66602 5.25112 3.22781 3.89482 4.22782 2.89481C5.22783 1.89481 6.58413 1.33301 7.99836 1.33301C9.41258 1.33301 10.7689 1.89481 11.7689 2.89481C12.7689 3.89482 13.3307 5.25112 13.3307 6.66535Z" stroke="#4A7BA7" stroke-width="1.33309" stroke-linecap="round" stroke-linejoin="round"/>
<path d="M7.99767 8.66527C9.10204 8.66527 9.9973 7.77001 9.9973 6.66564C9.9973 5.56128 9.10204 4.66602 7.99767 4.66602C6.89331 4.66602 5.99805 5.56128 5.99805 6.66564C5.99805 7.77001 6.89331 8.66527 7.99767 8.66527Z" stroke="#4A7BA7" stroke-width="1.33309" stroke-linecap="round" stroke-linejoin="round"/>
</g>
<defs>
<clipPath id="clip0_2132_1564">
<rect width="15.997" height="15.997" fill="white"/>
</clipPath>
</defs>
</svg>
