<svg width="48" height="48" viewBox="0 0 48 48" fill="none" xmlns="http://www.w3.org/2000/svg">
<path d="M23.9963 43.9926C35.0399 43.9926 43.9926 35.0399 43.9926 23.9963C43.9926 12.9526 35.0399 4 23.9963 4C12.9526 4 4 12.9526 4 23.9963C4 35.0399 12.9526 43.9926 23.9963 43.9926Z" stroke="#155DFC" stroke-width="3.99926" stroke-linecap="round" stroke-linejoin="round"/>
<path d="M23.995 25.9958C27.3081 25.9958 29.9939 23.31 29.9939 19.9969C29.9939 16.6838 27.3081 13.998 23.995 13.998C20.6819 13.998 17.9961 16.6838 17.9961 19.9969C17.9961 23.31 20.6819 25.9958 23.995 25.9958Z" stroke="#155DFC" stroke-width="3.99926" stroke-linecap="round" stroke-linejoin="round"/>
<path d="M13.998 41.3168V37.9934C13.998 36.9327 14.4194 35.9155 15.1694 35.1655C15.9194 34.4155 16.9366 33.9941 17.9973 33.9941H29.9951C31.0557 33.9941 32.073 34.4155 32.823 35.1655C33.573 35.9155 33.9943 36.9327 33.9943 37.9934V41.3168" stroke="#155DFC" stroke-width="3.99926" stroke-linecap="round" stroke-linejoin="round"/>
</svg>
