<svg width="48" height="48" viewBox="0 0 48 48" fill="none" xmlns="http://www.w3.org/2000/svg">
<path d="M29.9935 4H17.9957C16.8914 4 15.9961 4.89526 15.9961 5.99963V9.99888C15.9961 11.1032 16.8914 11.9985 17.9957 11.9985H29.9935C31.0979 11.9985 31.9931 11.1032 31.9931 9.99888V5.99963C31.9931 4.89526 31.0979 4 29.9935 4Z" stroke="#9810FA" stroke-width="3.99926" stroke-linecap="round" stroke-linejoin="round"/>
<path d="M31.9936 7.99805H35.9928C37.0535 7.99805 38.0707 8.4194 38.8207 9.1694C39.5707 9.91941 39.9921 10.9366 39.9921 11.9973V39.9921C39.9921 41.0528 39.5707 42.07 38.8207 42.82C38.0707 43.57 37.0535 43.9913 35.9928 43.9913H11.9973C10.9366 43.9913 9.91941 43.57 9.1694 42.82C8.4194 42.07 7.99805 41.0528 7.99805 39.9921V11.9973C7.99805 10.9366 8.4194 9.91941 9.1694 9.1694C9.91941 8.4194 10.9366 7.99805 11.9973 7.99805H15.9966" stroke="#9810FA" stroke-width="3.99926" stroke-linecap="round" stroke-linejoin="round"/>
<path d="M23.9961 21.9961H31.9946" stroke="#9810FA" stroke-width="3.99926" stroke-linecap="round" stroke-linejoin="round"/>
<path d="M23.9961 31.9941H31.9946" stroke="#9810FA" stroke-width="3.99926" stroke-linecap="round" stroke-linejoin="round"/>
<path d="M15.9961 21.9961H16.0161" stroke="#9810FA" stroke-width="3.99926" stroke-linecap="round" stroke-linejoin="round"/>
<path d="M15.9961 31.9941H16.0161" stroke="#9810FA" stroke-width="3.99926" stroke-linecap="round" stroke-linejoin="round"/>
</svg>
