<svg width="48" height="48" viewBox="0 0 48 48" fill="none" xmlns="http://www.w3.org/2000/svg">
<path d="M21.9961 4V7.99926" stroke="#00A63E" stroke-width="3.99926" stroke-linecap="round" stroke-linejoin="round"/>
<path d="M9.99805 4V7.99926" stroke="#00A63E" stroke-width="3.99926" stroke-linecap="round" stroke-linejoin="round"/>
<path d="M9.99888 5.99805H7.99926C6.93859 5.99805 5.92136 6.4194 5.17135 7.1694C4.42135 7.91941 4 8.93663 4 9.9973V17.9958C4 21.1778 5.26405 24.2295 7.51406 26.4795C9.76408 28.7295 12.8158 29.9936 15.9978 29.9936C19.1798 29.9936 22.2314 28.7295 24.4815 26.4795C26.7315 24.2295 27.9955 21.1778 27.9955 17.9958V9.9973C27.9955 8.93663 27.5742 7.91941 26.8242 7.1694C26.0742 6.4194 25.0569 5.99805 23.9963 5.99805H21.9966" stroke="#00A63E" stroke-width="3.99926" stroke-linecap="round" stroke-linejoin="round"/>
<path d="M15.9961 29.995C15.9961 33.177 17.2601 36.2287 19.5102 38.4787C21.7602 40.7287 24.8119 41.9927 27.9939 41.9927C31.1759 41.9927 34.2275 40.7287 36.4776 38.4787C38.7276 36.2287 39.9916 33.177 39.9916 29.995V23.9961" stroke="#00A63E" stroke-width="3.99926" stroke-linecap="round" stroke-linejoin="round"/>
<path d="M39.9934 23.9946C42.2021 23.9946 43.9927 22.2041 43.9927 19.9953C43.9927 17.7866 42.2021 15.9961 39.9934 15.9961C37.7847 15.9961 35.9941 17.7866 35.9941 19.9953C35.9941 22.2041 37.7847 23.9946 39.9934 23.9946Z" stroke="#00A63E" stroke-width="3.99926" stroke-linecap="round" stroke-linejoin="round"/>
</svg>
