<svg width="20" height="20" viewBox="0 0 20 20" fill="none" xmlns="http://www.w3.org/2000/svg">
<g clip-path="url(#clip0_2132_7652)">
<path d="M11.526 13.806C11.6981 13.8851 11.892 13.9031 12.0758 13.8572C12.2595 13.8113 12.4221 13.7042 12.5368 13.5535L12.8327 13.166C12.9879 12.959 13.1892 12.791 13.4207 12.6753C13.6521 12.5596 13.9073 12.4993 14.166 12.4993H16.666C17.108 12.4993 17.532 12.6749 17.8445 12.9875C18.1571 13.3001 18.3327 13.724 18.3327 14.166V16.666C18.3327 17.108 18.1571 17.532 17.8445 17.8445C17.532 18.1571 17.108 18.3327 16.666 18.3327C12.6878 18.3327 8.87246 16.7523 6.05941 13.9393C3.24637 11.1262 1.66602 7.31093 1.66602 3.33268C1.66602 2.89065 1.84161 2.46673 2.15417 2.15417C2.46673 1.84161 2.89065 1.66602 3.33268 1.66602H5.83268C6.27471 1.66602 6.69863 1.84161 7.01119 2.15417C7.32375 2.46673 7.49935 2.89065 7.49935 3.33268V5.83268C7.49935 6.09142 7.43911 6.34661 7.32339 6.57804C7.20768 6.80946 7.03967 7.01077 6.83268 7.16602L6.44268 7.45851C6.2897 7.57533 6.18186 7.7415 6.13751 7.92881C6.09315 8.11611 6.115 8.31299 6.19935 8.48601C7.33825 10.7992 9.21137 12.67 11.526 13.806Z" stroke="#4A7BA7" stroke-width="1.66667" stroke-linecap="round" stroke-linejoin="round"/>
</g>
<defs>
<clipPath id="clip0_2132_7652">
<rect width="20" height="20" fill="white"/>
</clipPath>
</defs>
</svg>
